{"title":"Familiyata - Season 1 - Episode 1","uid":8335859,"size":1072568832,"categoryP":"video","categoryS":"tv_shows","magnet":"?xt=urn:btih:b21b6b47a2023a4106408025a3a16b323ad5533e&amp;dn=Familiyata+-+Season+1+-+Episode+1&amp;tr=udp%3A%2F%2Ftracker.openbittorrent.com%3A80&amp;tr=udp%3A%2F%2Fopen.demonii.com%3A1337&amp;tr=udp%3A%2F%2Ftracker.coppersurfer.tk%3A6969&amp;tr=udp%3A%2F%2Fexodus.desync.com%3A6969","seeders":1,"leechers":1,"uploader":null,"files":1,"time":1364985403,"description":"Familiyata.S01E01.WEB.Rip.AVI.FREEPLAY.avi\n   \nGeneral\n      \nComplete name : Familiyata.S01E01.WEB.Rip.AVI.FREEPLAY.avi\n      Format : AVI\n      Format/Info : Audio Video Interleave\n      File size : 1 023 MiB\n      Duration : 54mn 20s\n      Overall bit rate : 2 632 Kbps\n   Video #0\n      ID : 0\n      Format : MPEG-4 Visual\n      Format profile : Simple@L3\n      Format settings, BVOP : No\n      Format settings, QPel : No\n      Format settings, GMC : No warppoints\n      Format settings, Matrix : Default (H.263)\n      Codec ID : XVID\n      Codec ID/Hint : XviD\n      Duration : 54mn 20s\n      Bit rate : 2 490 Kbps\n      Width : 1 280 pixels\n      Height : 720 pixels\n      Display aspect ratio : 16:9\n      Frame rate : 30.000 fps\n      Resolution : 24 bits\n      Colorimetry : 4:2:0\n      Scan type : Progressive\n      Bits/(Pixel*Frame) : 0.090\n      Stream size : 968 MiB (95%)\n      Writing library : XviD 1.2.1 (UTC 2008-12-04)\n   Audio #1\n      ID : 1\n      Format : MPEG Audio\n      Format version : Version 1\n      Format profile : Layer 3\n      Codec ID : 55\n      Codec ID/Hint : MP3\n      Duration : 54mn 20s\n      Bit rate mode : Constant\n      Bit rate : 128 Kbps\n      Channel(s) : 2 channels\n      Sampling rate : 48.0 KHz\n      Resolution : 16 bits\n      Stream size : 49.8 MiB (5%)\n      Alignment : Aligned on interleaves\n      Interleave, duration : 24 ms (0.72 video frame)\n      Writing library : LAME3.98.2","torrent":{"xt":"urn:btih:b21b6b47a2023a4106408025a3a16b323ad5533e","amp;dn":"Familiyata+-+Season+1+-+Episode+1","amp;tr":["udp%3A%2F%2Ftracker.openbittorrent.com%3A80","udp%3A%2F%2Fopen.demonii.com%3A1337","udp%3A%2F%2Ftracker.coppersurfer.tk%3A6969","udp%3A%2F%2Fexodus.desync.com%3A6969"],"infoHash":"b21b6b47a2023a4106408025a3a16b323ad5533e","infoHashBuffer":{"type":"Buffer","data":[178,27,107,71,162,2,58,65,6,64,128,37,163,161,107,50,58,213,83,62]},"announce":[],"urlList":[]}}